<svg width="31" height="31" viewBox="0 0 31 31" fill="none" xmlns="http://www.w3.org/2000/svg">
<g filter="url(#filter0_d)">
<path d="M18.273 11.5L25.695 4.07799C26.084 3.68899 26.084 3.05299 25.695 2.66399L24.336 1.30499C23.947 0.915995 23.311 0.915995 22.922 1.30499L15.5 8.72699L8.07799 1.30499C7.68899 0.915995 7.05299 0.915995 6.66399 1.30499L5.30499 2.66399C4.91599 3.05299 4.91599 3.68899 5.30499 4.07799L12.727 11.5L5.30599 18.922C4.91699 19.311 4.91699 19.947 5.30599 20.336L6.66499 21.695C7.05399 22.084 7.68999 22.084 8.07899 21.695L15.501 14.273L22.923 21.695C23.312 22.084 23.948 22.084 24.337 21.695L25.696 20.336C26.085 19.947 26.085 19.311 25.696 18.922L18.273 11.5Z" fill="#EE3643"/>
<path d="M18.273 11.5L25.695 4.07799C26.084 3.68899 26.084 3.05299 25.695 2.66399L24.336 1.30499C23.947 0.915995 23.311 0.915995 22.922 1.30499L15.5 8.72699L8.07799 1.30499C7.68899 0.915995 7.05299 0.915995 6.66399 1.30499L5.30499 2.66399C4.91599 3.05299 4.91599 3.68899 5.30499 4.07799L12.727 11.5L5.30599 18.922C4.91699 19.311 4.91699 19.947 5.30599 20.336L6.66499 21.695C7.05399 22.084 7.68999 22.084 8.07899 21.695L15.501 14.273L22.923 21.695C23.312 22.084 23.948 22.084 24.337 21.695L25.696 20.336C26.085 19.947 26.085 19.311 25.696 18.922L18.273 11.5Z" stroke="black"/>
</g>
<defs>
<filter id="filter0_d" x="0.513245" y="0.513245" width="29.9745" height="29.9735" filterUnits="userSpaceOnUse" color-interpolation-filters="sRGB">
<feFlood flood-opacity="0" result="BackgroundImageFix"/>
<feColorMatrix in="SourceAlpha" type="matrix" values="0 0 0 0 0 0 0 0 0 0 0 0 0 0 0 0 0 0 127 0"/>
<feOffset dy="4"/>
<feGaussianBlur stdDeviation="2"/>
<feColorMatrix type="matrix" values="0 0 0 0 0 0 0 0 0 0 0 0 0 0 0 0 0 0 0.25 0"/>
<feBlend mode="normal" in2="BackgroundImageFix" result="effect1_dropShadow"/>
<feBlend mode="normal" in="SourceGraphic" in2="effect1_dropShadow" result="shape"/>
</filter>
</defs>
</svg>
