<svg width="142" height="11" viewBox="0 0 142 11" fill="none" xmlns="http://www.w3.org/2000/svg">
<path d="M2.5179 10.14C1.6499 10.14 0.90323 10.0467 0.277897 9.86V0.340005C0.90323 0.153339 1.6499 0.0600056 2.5179 0.0600056C3.48856 0.0600056 4.19789 0.270006 4.64589 0.690005C5.09389 1.11001 5.31789 1.76334 5.31789 2.65C5.31789 3.62067 4.94456 4.31134 4.19789 4.722V4.778C5.22456 5.07667 5.73789 5.93067 5.73789 7.34C5.73789 8.00267 5.63056 8.53933 5.41589 8.95C5.21056 9.36067 4.87456 9.664 4.40789 9.86C3.94123 10.0467 3.31123 10.14 2.5179 10.14ZM2.3779 4.4C2.9379 4.4 3.35789 4.25534 3.63789 3.966C3.91789 3.67667 4.05789 3.238 4.05789 2.65C4.05789 1.53 3.49789 0.970005 2.3779 0.970005H1.5379V4.4H2.3779ZM2.5179 9.23C3.2179 9.23 3.71723 9.08533 4.01589 8.796C4.32389 8.49733 4.47789 8.012 4.47789 7.34C4.47789 6.612 4.32389 6.094 4.01589 5.786C3.71723 5.46867 3.2179 5.31 2.5179 5.31H1.5379V9.23H2.5179ZM10.0779 10.14C9.38722 10.14 8.81789 9.99067 8.36989 9.692C7.92189 9.384 7.58123 8.86133 7.34789 8.124C7.11456 7.38667 6.99789 6.37867 6.99789 5.1C6.99789 3.83067 7.11456 2.82734 7.34789 2.09C7.58123 1.35267 7.90789 0.830005 8.32789 0.522005C8.75723 0.214005 9.29389 0.0600056 9.93789 0.0600056C10.3299 0.0600056 10.7219 0.0880055 11.1139 0.144005C11.5059 0.200006 11.8139 0.265339 12.0379 0.340005V0.970005H10.2179C9.59256 0.970005 9.10722 1.27334 8.76189 1.88C8.42589 2.48667 8.25789 3.56 8.25789 5.1C8.25789 6.15467 8.34189 6.98533 8.50989 7.592C8.67789 8.19867 8.91589 8.62333 9.22389 8.866C9.53189 9.10867 9.90989 9.23 10.3579 9.23H12.1779V9.86C11.9539 9.93467 11.6459 10 11.2539 10.056C10.8712 10.112 10.4792 10.14 10.0779 10.14ZM13.3619 10V0.200005H18.1219V1.18H14.6219V4.4H17.7019V5.38H14.6219V9.02H18.1219V10H13.3619ZM23.1646 10V0.200005H28.6246V10H27.3646V1.18H24.4246V10H23.1646ZM33.3184 10.14C32.6558 10.14 32.1051 9.99067 31.6664 9.692C31.2278 9.384 30.8918 8.86133 30.6584 8.124C30.4251 7.37733 30.3084 6.36934 30.3084 5.1C30.3084 3.83067 30.4251 2.82734 30.6584 2.09C30.8918 1.34334 31.2278 0.820672 31.6664 0.522005C32.1051 0.214005 32.6558 0.0600056 33.3184 0.0600056C33.9811 0.0600056 34.5318 0.214005 34.9704 0.522005C35.4091 0.820672 35.7451 1.34334 35.9784 2.09C36.2118 2.82734 36.3284 3.83067 36.3284 5.1C36.3284 6.36934 36.2118 7.37733 35.9784 8.124C35.7451 8.86133 35.4091 9.384 34.9704 9.692C34.5318 9.99067 33.9811 10.14 33.3184 10.14ZM33.3184 9.3C34.4851 9.3 35.0684 7.9 35.0684 5.1C35.0684 2.3 34.4851 0.900005 33.3184 0.900005C32.1518 0.900005 31.5684 2.3 31.5684 5.1C31.5684 7.9 32.1518 9.3 33.3184 9.3ZM38.0122 10V0.200005H43.4722V10H42.2122V1.18H39.2722V10H38.0122ZM46.9201 10.14C46.5467 10.14 46.0801 10.0467 45.5201 9.86V9.23H46.5001C46.8921 9.23 47.2001 9.08533 47.4241 8.796C47.6574 8.50667 47.8534 7.97467 48.0121 7.2C46.9201 7.2 46.2247 6.64 45.9261 5.52L44.4561 0.200005H45.7161L47.1861 5.52C47.2607 5.76267 47.3821 5.954 47.5501 6.094C47.7181 6.22467 47.9327 6.29 48.1941 6.29L49.4261 0.200005H50.6861L49.1601 7.76C48.9921 8.6 48.7307 9.20667 48.3761 9.58C48.0307 9.95333 47.5454 10.14 46.9201 10.14ZM51.5304 10.14C51.3251 10.14 51.1338 10.1167 50.9564 10.07C50.7791 10.0327 50.6904 10.0093 50.6904 10V9.37C51.1011 9.37 51.4278 9.19267 51.6704 8.838C51.9131 8.48333 52.0531 7.89067 52.0904 7.06L52.4404 0.200005H57.1304V10H55.8704V1.18H53.6584L53.3504 7.06C53.2944 8.11467 53.0984 8.894 52.7624 9.398C52.4358 9.89267 52.0251 10.14 51.5304 10.14ZM59.0943 10.14C58.9169 10.14 58.7443 10.1213 58.5763 10.084C58.4083 10.0467 58.3009 10.0187 58.2543 10V9.37C58.5903 9.37 58.8423 9.29533 59.0103 9.146C59.1783 8.98733 59.2996 8.75867 59.3743 8.46L59.6543 7.27C59.8596 6.39267 60.2096 5.87467 60.7043 5.716V5.66C60.3776 5.61334 60.0696 5.48267 59.7803 5.268C59.5003 5.05334 59.2669 4.75467 59.0803 4.372C58.9029 3.98934 58.8143 3.532 58.8143 3C58.8143 2.29067 58.9169 1.726 59.1223 1.306C59.3276 0.876672 59.6496 0.564005 60.0883 0.368006C60.5363 0.162672 61.1383 0.0600056 61.8943 0.0600056C62.7623 0.0600056 63.5089 0.153339 64.1343 0.340005V10H62.8743V6.01H62.3143C61.6329 6.01 61.1896 6.43 60.9843 7.27L60.7043 8.46C60.5643 9.02 60.3589 9.44 60.0883 9.72C59.8176 10 59.4863 10.14 59.0943 10.14ZM62.8743 5.03V0.970005H61.8943C61.2596 0.970005 60.7976 1.12867 60.5083 1.44601C60.2189 1.754 60.0743 2.272 60.0743 3C60.0743 3.728 60.2189 4.25067 60.5083 4.568C60.7976 4.876 61.2596 5.03 61.8943 5.03H62.8743ZM66.0943 0.340005C66.7196 0.153339 67.4663 0.0600056 68.3343 0.0600056C69.0996 0.0600056 69.7016 0.167339 70.1403 0.382005C70.5883 0.596672 70.9103 0.956005 71.1063 1.46001C71.3116 1.964 71.4143 2.664 71.4143 3.56C71.4143 4.46534 71.3209 5.17934 71.1343 5.702C70.9476 6.21534 70.6583 6.584 70.2663 6.808C69.8836 7.02267 69.3796 7.13 68.7543 7.13C68.5489 7.13 68.3109 7.116 68.0403 7.088C67.7696 7.06 67.5409 7.02734 67.3543 6.99V10H66.0943V0.340005ZM68.3343 6.15C68.7729 6.15 69.1229 6.07534 69.3843 5.926C69.6456 5.76734 69.8369 5.50134 69.9583 5.128C70.0889 4.75467 70.1543 4.232 70.1543 3.56C70.1543 2.888 70.0889 2.36534 69.9583 1.992C69.8369 1.61867 69.6456 1.35734 69.3843 1.20801C69.1229 1.04934 68.7729 0.970005 68.3343 0.970005H67.3543V6.15H68.3343ZM72.9575 10V0.200005H74.2175V4.54H77.1575V0.200005H78.4175V10H77.1575V5.52H74.2175V10H72.9575ZM82.6214 10.14C81.7534 10.14 81.0067 10.0467 80.3814 9.86V0.200005H81.6414V4.19C81.828 4.15267 82.0567 4.12 82.3274 4.092C82.598 4.064 82.836 4.05 83.0414 4.05C83.9374 4.05 84.5907 4.288 85.0014 4.764C85.4214 5.24 85.6314 6.02867 85.6314 7.13C85.6314 7.858 85.5287 8.44133 85.3234 8.88C85.1274 9.31867 84.81 9.64067 84.3714 9.846C83.9327 10.042 83.3494 10.14 82.6214 10.14ZM86.8214 10V0.200005H88.0814V10H86.8214ZM82.6214 9.23C83.228 9.23 83.6714 9.07133 83.9514 8.754C84.2314 8.42733 84.3714 7.886 84.3714 7.13C84.3714 6.374 84.2314 5.83734 83.9514 5.52C83.6714 5.19334 83.228 5.03 82.6214 5.03H81.6414V9.23H82.6214ZM90.0474 10V0.200005H94.8074V1.18H91.3074V4.4H94.3874V5.38H91.3074V9.02H94.8074V10H90.0474ZM101.25 10V1.18H99.0101V0.200005H104.75V1.18H102.51V10H101.25ZM108.322 10.14C107.66 10.14 107.109 9.99067 106.67 9.692C106.232 9.384 105.896 8.86133 105.662 8.124C105.429 7.37733 105.312 6.36934 105.312 5.1C105.312 3.83067 105.429 2.82734 105.662 2.09C105.896 1.34334 106.232 0.820672 106.67 0.522005C107.109 0.214005 107.66 0.0600056 108.322 0.0600056C108.985 0.0600056 109.536 0.214005 109.974 0.522005C110.413 0.820672 110.749 1.34334 110.982 2.09C111.216 2.82734 111.332 3.83067 111.332 5.1C111.332 6.36934 111.216 7.37733 110.982 8.124C110.749 8.86133 110.413 9.384 109.974 9.692C109.536 9.99067 108.985 10.14 108.322 10.14ZM108.322 9.3C109.489 9.3 110.072 7.9 110.072 5.1C110.072 2.3 109.489 0.900005 108.322 0.900005C107.156 0.900005 106.572 2.3 106.572 5.1C106.572 7.9 107.156 9.3 108.322 9.3ZM115.256 10.14C114.388 10.14 113.641 10.0467 113.016 9.86V0.340005C113.641 0.153339 114.388 0.0600056 115.256 0.0600056C116.227 0.0600056 116.936 0.270006 117.384 0.690005C117.832 1.11001 118.056 1.76334 118.056 2.65C118.056 3.62067 117.683 4.31134 116.936 4.722V4.778C117.963 5.07667 118.476 5.93067 118.476 7.34C118.476 8.00267 118.369 8.53933 118.154 8.95C117.949 9.36067 117.613 9.664 117.146 9.86C116.679 10.0467 116.049 10.14 115.256 10.14ZM115.116 4.4C115.676 4.4 116.096 4.25534 116.376 3.966C116.656 3.67667 116.796 3.238 116.796 2.65C116.796 1.53 116.236 0.970005 115.116 0.970005H114.276V4.4H115.116ZM115.256 9.23C115.956 9.23 116.455 9.08533 116.754 8.796C117.062 8.49733 117.216 8.012 117.216 7.34C117.216 6.612 117.062 6.094 116.754 5.786C116.455 5.46867 115.956 5.31 115.256 5.31H114.276V9.23H115.256ZM119.316 10L121.696 0.200005H123.516L125.896 10H124.636L124.006 7.48H121.206L120.576 10H119.316ZM121.416 6.5H123.796L122.634 1.6H122.578L121.416 6.5ZM127.153 0.340005C127.778 0.153339 128.525 0.0600056 129.393 0.0600056C130.158 0.0600056 130.76 0.167339 131.199 0.382005C131.647 0.596672 131.969 0.956005 132.165 1.46001C132.37 1.964 132.473 2.664 132.473 3.56C132.473 4.46534 132.379 5.17934 132.193 5.702C132.006 6.21534 131.717 6.584 131.325 6.808C130.942 7.02267 130.438 7.13 129.813 7.13C129.607 7.13 129.369 7.116 129.099 7.088C128.828 7.06 128.599 7.02734 128.413 6.99V10H127.153V0.340005ZM129.393 6.15C129.831 6.15 130.181 6.07534 130.443 5.926C130.704 5.76734 130.895 5.50134 131.017 5.128C131.147 4.75467 131.213 4.232 131.213 3.56C131.213 2.888 131.147 2.36534 131.017 1.992C130.895 1.61867 130.704 1.35734 130.443 1.20801C130.181 1.04934 129.831 0.970005 129.393 0.970005H128.413V6.15H129.393ZM136.256 10.14C135.388 10.14 134.641 10.0467 134.016 9.86V0.200005H135.276V4.19C135.463 4.15267 135.691 4.12 135.962 4.092C136.233 4.064 136.471 4.05 136.676 4.05C137.572 4.05 138.225 4.288 138.636 4.764C139.056 5.24 139.266 6.02867 139.266 7.13C139.266 7.858 139.163 8.44133 138.958 8.88C138.762 9.31867 138.445 9.64067 138.006 9.846C137.567 10.042 136.984 10.14 136.256 10.14ZM140.456 10V0.200005H141.716V10H140.456ZM136.256 9.23C136.863 9.23 137.306 9.07133 137.586 8.754C137.866 8.42733 138.006 7.886 138.006 7.13C138.006 6.374 137.866 5.83734 137.586 5.52C137.306 5.19334 136.863 5.03 136.256 5.03H135.276V9.23H136.256Z" fill="white"/>
</svg>
