<svg width="113" height="13" viewBox="0 0 113 13" fill="none" xmlns="http://www.w3.org/2000/svg">
<path d="M2.27765 10.14C1.40965 10.14 0.662984 10.0467 0.0376509 9.86V0.340005C0.662984 0.153339 1.40965 0.0600056 2.27765 0.0600056C3.24832 0.0600056 3.95765 0.270006 4.40565 0.690005C4.85365 1.11001 5.07765 1.76334 5.07765 2.65C5.07765 3.62067 4.70431 4.31134 3.95765 4.722V4.778C4.98431 5.07667 5.49765 5.93067 5.49765 7.34C5.49765 8.00267 5.39031 8.53933 5.17565 8.95C4.97031 9.36067 4.63432 9.664 4.16765 9.86C3.70098 10.0467 3.07098 10.14 2.27765 10.14ZM2.13765 4.4C2.69765 4.4 3.11765 4.25534 3.39765 3.966C3.67765 3.67667 3.81765 3.238 3.81765 2.65C3.81765 1.53 3.25765 0.970005 2.13765 0.970005H1.29765V4.4H2.13765ZM2.27765 9.23C2.97765 9.23 3.47698 9.08533 3.77565 8.796C4.08365 8.49733 4.23765 8.012 4.23765 7.34C4.23765 6.612 4.08365 6.094 3.77565 5.786C3.47698 5.46867 2.97765 5.31 2.27765 5.31H1.29765V9.23H2.27765ZM9.83765 10.14C9.14698 10.14 8.57765 9.99067 8.12965 9.692C7.68165 9.384 7.34098 8.86133 7.10765 8.124C6.87431 7.38667 6.75765 6.37867 6.75765 5.1C6.75765 3.83067 6.87431 2.82734 7.10765 2.09C7.34098 1.35267 7.66765 0.830005 8.08765 0.522005C8.51698 0.214005 9.05365 0.0600056 9.69765 0.0600056C10.0896 0.0600056 10.4816 0.0880055 10.8736 0.144005C11.2656 0.200006 11.5736 0.265339 11.7976 0.340005V0.970005H9.97764C9.35231 0.970005 8.86698 1.27334 8.52165 1.88C8.18565 2.48667 8.01765 3.56 8.01765 5.1C8.01765 6.15467 8.10165 6.98533 8.26965 7.592C8.43765 8.19867 8.67565 8.62333 8.98365 8.866C9.29165 9.10867 9.66965 9.23 10.1176 9.23H11.9376V9.86C11.7136 9.93467 11.4056 10 11.0136 10.056C10.631 10.112 10.239 10.14 9.83765 10.14ZM13.1216 10V0.200005H17.8816V1.18H14.3816V4.4H17.4616V5.38H14.3816V9.02H17.8816V10H13.1216ZM22.9244 10V0.200005H28.3844V10H27.1244V1.18H24.1844V10H22.9244ZM30.3482 0.340005C30.9735 0.153339 31.7202 0.0600056 32.5882 0.0600056C33.3535 0.0600056 33.9555 0.167339 34.3942 0.382005C34.8422 0.596672 35.1642 0.956005 35.3602 1.46001C35.5655 1.964 35.6682 2.664 35.6682 3.56C35.6682 4.46534 35.5748 5.17934 35.3882 5.702C35.2015 6.21534 34.9122 6.584 34.5202 6.808C34.1375 7.02267 33.6335 7.13 33.0082 7.13C32.8028 7.13 32.5648 7.116 32.2942 7.088C32.0235 7.06 31.7948 7.02734 31.6082 6.99V10H30.3482V0.340005ZM32.5882 6.15C33.0268 6.15 33.3768 6.07534 33.6382 5.926C33.8995 5.76734 34.0908 5.50134 34.2122 5.128C34.3428 4.75467 34.4082 4.232 34.4082 3.56C34.4082 2.888 34.3428 2.36534 34.2122 1.992C34.0908 1.61867 33.8995 1.35734 33.6382 1.20801C33.3768 1.04934 33.0268 0.970005 32.5882 0.970005H31.6082V6.15H32.5882ZM39.9415 10.14C39.2788 10.14 38.7281 9.99067 38.2895 9.692C37.8508 9.384 37.5148 8.86133 37.2815 8.124C37.0481 7.37733 36.9315 6.36934 36.9315 5.1C36.9315 3.83067 37.0481 2.82734 37.2815 2.09C37.5148 1.34334 37.8508 0.820672 38.2895 0.522005C38.7281 0.214005 39.2788 0.0600056 39.9415 0.0600056C40.6041 0.0600056 41.1548 0.214005 41.5935 0.522005C42.0321 0.820672 42.3681 1.34334 42.6015 2.09C42.8348 2.82734 42.9515 3.83067 42.9515 5.1C42.9515 6.36934 42.8348 7.37733 42.6015 8.124C42.3681 8.86133 42.0321 9.384 41.5935 9.692C41.1548 9.99067 40.6041 10.14 39.9415 10.14ZM39.9415 9.3C41.1081 9.3 41.6915 7.9 41.6915 5.1C41.6915 2.3 41.1081 0.900005 39.9415 0.900005C38.7748 0.900005 38.1915 2.3 38.1915 5.1C38.1915 7.9 38.7748 9.3 39.9415 9.3ZM44.6353 10V0.200005H45.8953V7.48H45.9653L48.7653 0.200005H50.2353V10H48.9753V2.72H48.9053L46.0353 10H44.6353ZM53.3858 10.14C53.0498 10.14 52.6952 10.112 52.3218 10.056C51.9485 10 51.6498 9.93467 51.4258 9.86V9.23H53.3858C54.0858 9.23 54.5852 9.08533 54.8838 8.796C55.1918 8.49733 55.3458 8.012 55.3458 7.34C55.3458 6.64 55.1918 6.14067 54.8838 5.842C54.5852 5.534 54.0858 5.38 53.3858 5.38H52.4058V4.4H53.2458C53.8712 4.4 54.3285 4.26 54.6178 3.98C54.9165 3.69067 55.0658 3.24734 55.0658 2.65C55.0658 2.08067 54.9165 1.66067 54.6178 1.39001C54.3285 1.11001 53.8712 0.970005 53.2458 0.970005H51.5658V0.340005C51.7805 0.265339 52.0698 0.200006 52.4338 0.144005C52.7978 0.0880055 53.1152 0.0600056 53.3858 0.0600056C54.4218 0.0600056 55.1685 0.270006 55.6258 0.690005C56.0925 1.11001 56.3258 1.76334 56.3258 2.65C56.3258 3.20067 56.2232 3.64867 56.0178 3.994C55.8125 4.33 55.4952 4.596 55.0658 4.792V4.848C55.5978 4.99734 55.9852 5.29134 56.2278 5.73C56.4798 6.16867 56.6058 6.70534 56.6058 7.34C56.6058 8.00267 56.4985 8.53933 56.2838 8.95C56.0785 9.36067 55.7425 9.664 55.2758 9.86C54.8092 10.0467 54.1792 10.14 53.3858 10.14ZM60.3831 10.14C59.5151 10.14 58.7684 10.0467 58.1431 9.86V0.340005C58.7684 0.153339 59.5151 0.0600056 60.3831 0.0600056C61.3537 0.0600056 62.0631 0.270006 62.5111 0.690005C62.9591 1.11001 63.1831 1.76334 63.1831 2.65C63.1831 3.62067 62.8097 4.31134 62.0631 4.722V4.778C63.0897 5.07667 63.6031 5.93067 63.6031 7.34C63.6031 8.00267 63.4957 8.53933 63.2811 8.95C63.0757 9.36067 62.7397 9.664 62.2731 9.86C61.8064 10.0467 61.1764 10.14 60.3831 10.14ZM60.2431 4.4C60.8031 4.4 61.2231 4.25534 61.5031 3.966C61.7831 3.67667 61.9231 3.238 61.9231 2.65C61.9231 1.53 61.3631 0.970005 60.2431 0.970005H59.4031V4.4H60.2431ZM60.3831 9.23C61.0831 9.23 61.5824 9.08533 61.8811 8.796C62.1891 8.49733 62.3431 8.012 62.3431 7.34C62.3431 6.612 62.1891 6.094 61.8811 5.786C61.5824 5.46867 61.0831 5.31 60.3831 5.31H59.4031V9.23H60.3831ZM67.8731 10.14C67.2104 10.14 66.6598 9.99067 66.2211 9.692C65.7824 9.384 65.4464 8.86133 65.2131 8.124C64.9798 7.37733 64.8631 6.36934 64.8631 5.1C64.8631 3.83067 64.9798 2.82734 65.2131 2.09C65.4464 1.34334 65.7824 0.820672 66.2211 0.522005C66.6598 0.214005 67.2104 0.0600056 67.8731 0.0600056C68.5358 0.0600056 69.0864 0.214005 69.5251 0.522005C69.9637 0.820672 70.2997 1.34334 70.5331 2.09C70.7664 2.82734 70.8831 3.83067 70.8831 5.1C70.8831 6.36934 70.7664 7.37733 70.5331 8.124C70.2997 8.86133 69.9637 9.384 69.5251 9.692C69.0864 9.99067 68.5358 10.14 67.8731 10.14ZM67.8731 9.3C69.0397 9.3 69.6231 7.9 69.6231 5.1C69.6231 2.3 69.0397 0.900005 67.8731 0.900005C66.7064 0.900005 66.1231 2.3 66.1231 5.1C66.1231 7.9 66.7064 9.3 67.8731 9.3ZM71.5902 9.02H72.2902C72.2902 9.048 72.3462 8.93133 72.4582 8.67C72.5795 8.39933 72.6915 8.054 72.7942 7.634C72.8968 7.20467 72.9622 6.71 72.9902 6.15L73.2702 0.200005H77.8202V9.02H78.7302V12.1H77.9602C77.7548 11.54 77.6148 10.84 77.5402 10H72.7802C72.7148 10.84 72.5748 11.54 72.3602 12.1H71.5902V9.02ZM76.5602 9.02V1.18H74.4882L74.2502 6.15C74.2222 6.71 74.1568 7.20467 74.0542 7.634C73.9515 8.054 73.8395 8.39933 73.7182 8.67C73.6062 8.93133 73.5502 9.048 73.5502 9.02H76.5602ZM80.0591 10V0.200005H81.3191V7.48H81.3891L84.1891 0.200005H85.6591V10H84.3991V2.72H84.3291L81.4591 10H80.0591ZM89.0196 10V1.18H86.7796V0.200005H92.5196V1.18H90.2796V10H89.0196ZM93.6352 10V0.200005H98.3952V1.18H94.8952V4.4H97.9752V5.38H94.8952V9.02H98.3952V10H93.6352ZM99.798 10.14C99.5926 10.14 99.4013 10.1167 99.224 10.07C99.0466 10.0327 98.958 10.0093 98.958 10V9.37C99.3686 9.37 99.6953 9.19267 99.938 8.838C100.181 8.48333 100.321 7.89067 100.358 7.06L100.708 0.200005H105.398V10H104.138V1.18H101.926L101.618 7.06C101.562 8.11467 101.366 8.894 101.03 9.398C100.703 9.89267 100.293 10.14 99.798 10.14ZM107.362 10V0.200005H108.622V7.48H108.692L111.492 0.200005H112.962V10H111.702V2.72H111.632L108.762 10H107.362Z" fill="white"/>
</svg>
